<svg width="15" height="13" viewBox="0 0 15 13" fill="none" xmlns="http://www.w3.org/2000/svg">
<path d="M14.4202 8.96719H5.11555L5.58274 8.01562L13.3452 8.00156C13.6077 8.00156 13.8327 7.81406 13.8796 7.55469L14.9546 1.5375C14.9827 1.37969 14.9406 1.21719 14.8374 1.09375C14.7865 1.033 14.7229 0.984065 14.6511 0.950339C14.5793 0.916613 14.5011 0.898903 14.4218 0.898438L4.5468 0.865625L4.46243 0.46875C4.4093 0.215625 4.18118 0.03125 3.9218 0.03125H1.50774C1.36146 0.03125 1.22116 0.0893608 1.11773 0.192799C1.01429 0.296237 0.956177 0.436529 0.956177 0.582813C0.956177 0.729096 1.01429 0.869388 1.11773 0.972826C1.22116 1.07626 1.36146 1.13438 1.50774 1.13438H3.47493L3.84368 2.8875L4.75149 7.28281L3.58274 9.19063C3.52204 9.27254 3.48549 9.36981 3.4772 9.47143C3.46892 9.57305 3.48924 9.67496 3.53586 9.76562C3.62961 9.95156 3.81868 10.0688 4.02805 10.0688H5.0093C4.80011 10.3466 4.68712 10.685 4.68743 11.0328C4.68743 11.9172 5.40618 12.6359 6.29055 12.6359C7.17493 12.6359 7.89368 11.9172 7.89368 11.0328C7.89368 10.6844 7.77805 10.3453 7.5718 10.0688H10.089C9.8798 10.3466 9.76681 10.685 9.76711 11.0328C9.76711 11.9172 10.4859 12.6359 11.3702 12.6359C12.2546 12.6359 12.9734 11.9172 12.9734 11.0328C12.9734 10.6844 12.8577 10.3453 12.6515 10.0688H14.4218C14.7249 10.0688 14.9734 9.82187 14.9734 9.51719C14.9725 9.37106 14.9138 9.23122 14.8102 9.12818C14.7065 9.02514 14.5664 8.96727 14.4202 8.96719V8.96719ZM4.77649 1.95312L13.7734 1.98281L12.8921 6.91719L5.82493 6.92969L4.77649 1.95312ZM6.29055 11.5266C6.01868 11.5266 5.7968 11.3047 5.7968 11.0328C5.7968 10.7609 6.01868 10.5391 6.29055 10.5391C6.56243 10.5391 6.7843 10.7609 6.7843 11.0328C6.7843 11.1638 6.73228 11.2894 6.63969 11.3819C6.54709 11.4745 6.4215 11.5266 6.29055 11.5266V11.5266ZM11.3702 11.5266C11.0984 11.5266 10.8765 11.3047 10.8765 11.0328C10.8765 10.7609 11.0984 10.5391 11.3702 10.5391C11.6421 10.5391 11.864 10.7609 11.864 11.0328C11.864 11.1638 11.812 11.2894 11.7194 11.3819C11.6268 11.4745 11.5012 11.5266 11.3702 11.5266V11.5266Z" fill="#8C8C8C"/>
</svg>
