<svg width="16" height="16" viewBox="0 0 16 16" fill="none" xmlns="http://www.w3.org/2000/svg">
<path d="M15.6378 7.87724L8.8456 1.08857L8.39033 0.633296C8.2866 0.530247 8.14632 0.472412 8.0001 0.472412C7.85388 0.472412 7.7136 0.530247 7.60986 0.633296L0.362402 7.87724C0.256109 7.98312 0.172104 8.10922 0.115345 8.2481C0.0585865 8.38698 0.0302245 8.53582 0.0319332 8.68584C0.0389645 9.30459 0.554003 9.79853 1.17275 9.79853H1.91982V15.5237H14.0804V9.79853H14.8433C15.1438 9.79853 15.4269 9.68076 15.6395 9.46806C15.7443 9.36367 15.8273 9.23953 15.8837 9.10285C15.9401 8.96616 15.9689 8.81964 15.9683 8.67177C15.9683 8.37294 15.8505 8.08994 15.6378 7.87724V7.87724ZM8.98447 14.2581H7.01572V10.6722H8.98447V14.2581ZM12.8147 8.53291V14.2581H10.1095V10.2503C10.1095 9.86181 9.79482 9.54716 9.40635 9.54716H6.59385C6.20537 9.54716 5.89072 9.86181 5.89072 10.2503V14.2581H3.18545V8.53291H1.49795L8.00185 2.03427L8.40791 2.44033L14.504 8.53291H12.8147Z" fill="#8C8C8C"/>
</svg>
